<svg xmlns="http://www.w3.org/2000/svg" width="60" height="68" fill="none" viewBox="0 0 60 68">
  <rect width="56" height="54" x="2" y="7" fill="#000" rx="27"/>
  <path fill="#A01D47" d="M59.246 17.001c-.47-.821-1.12-1.538-1.835-1.955L32.607.625c-1.432-.833-3.77-.833-5.2 0L2.597 15.046C1.167 15.876 0 17.916 0 19.58v28.843c0 .833.293 1.756.762 2.578.47.822 1.12 1.538 1.835 1.955l24.805 14.421c1.429.83 3.77.83 5.2 0l24.804-14.421c.714-.417 1.364-1.134 1.834-1.955.47-.822.76-1.745.76-2.578V19.579c.008-.832-.282-1.756-.754-2.578ZM30 54.146c-11.028 0-20-9.038-20-20.146 0-11.106 8.976-20.145 20.005-20.145 3.51.007 6.955.94 9.994 2.706a20.14 20.14 0 0 1 7.327 7.361l-8.655 5.043a10.072 10.072 0 0 0-3.664-3.687 9.982 9.982 0 0 0-5.002-1.356 9.982 9.982 0 0 0-7.074 2.954A10.122 10.122 0 0 0 19.997 34a10.131 10.131 0 0 0 2.935 7.12A9.981 9.981 0 0 0 30 44.073a9.99 9.99 0 0 0 5-1.355 10.08 10.08 0 0 0 3.666-3.683l8.66 5.043a20.145 20.145 0 0 1-7.329 7.361A19.968 19.968 0 0 1 30 54.145ZM50.006 35.12h-2.223v2.239H45.56V35.12h-2.222v-2.238h2.222v-2.238h2.223v2.238h2.223v2.238Zm8.334 0h-2.223v2.239h-2.223V35.12h-2.222v-2.238h2.222v-2.238h2.223v2.238h2.223v2.238Z"/>
</svg>
