<svg xmlns="http://www.w3.org/2000/svg" width="133" height="55" fill="none" viewBox="0 0 133 55">
  <path fill="#A01D47" d="m19.36 33.622 6.21-6.05H41L27.332 41.239l-7.972-7.617ZM0 29.573l7.76 7.944L41 4H25.57L0 29.573Z"/>
  <path fill="#A01D47" d="m11.585 41.315 7.87 7.754 7.877-7.83-7.972-7.617-7.775 7.693Zm7.871 7.755 7.876-7.83 13.476 13.628H25.292l-5.836-5.799Z"/>
  <path fill="#A01D47" d="m19.456 49.07 7.338-2.442-2.472-2.397-4.866 4.838Z"/>
  <g clip-path="url(#a)">
    <path fill="#01579B" d="m90.013 42.987-9.238-9.238C79.679 32.626 79 31.038 79 29.485c0-.718.405-1.842.71-2.485l8.528-17.762 1.775 33.75Z"/>
    <path fill="#40C4FF" d="m121.634 11.013-9.238-9.238C111.59.965 109.91 0 108.489 0c-1.223 0-2.422.246-3.196.71l-17.05 8.528 33.391 1.775ZM101.026 54h22.382v-9.592l-16.697-5.331-15.277 5.331L101.026 54Z"/>
    <path fill="#29B6F6" d="M88.238 38.013c0 2.85.358 3.55 1.775 4.974l1.421 1.421h31.974l-15.629-17.761-19.54-17.409v28.775Z"/>
    <path fill="#01579B" d="M116.659 9.234h-28.42l35.169 35.17H133V22.38l-11.37-11.37c-1.596-1.6-3.013-1.775-4.971-1.775Z"/>
    <path fill="#fff" d="M90.37 43.34c-1.421-1.425-1.775-2.83-1.775-5.327V9.59l-.353-.353v28.775c-.004 2.497-.004 3.188 2.128 5.327Z" opacity=".2"/>
    <path fill="#263238" d="M132.647 22.026V44.05h-9.592l.353.357H133V22.38l-.353-.353Z" opacity=".2"/>
    <path fill="#fff" d="M121.634 11.013c-1.763-1.763-3.204-1.775-5.328-1.775H88.242l.353.354h27.711c1.06 0 3.736-.18 5.328 1.42Z" opacity=".2"/>
    <path fill="url(#b)" d="m132.647 22.026-11.013-11.013-9.238-9.238C111.59.965 109.91 0 108.489 0c-1.222 0-2.421.246-3.196.71l-17.05 8.528L79.714 27c-.306.647-.711 1.77-.711 2.485 0 1.553.683 3.136 1.775 4.264L89.29 42.2c.203.25.441.504.723.786l.353.353 1.064 1.064 9.238 9.239.354.353H123.4v-9.591h9.592V22.379l-.345-.353Z" opacity=".2"/>
  </g>
  <path fill="#5D8E1E" d="M60.556 29.032h7.164v2.556h-7.164v7.416h-2.592v-7.416H50.8v-2.556h7.164V21.58h2.592v7.452Z"/>
  <defs>
    <radialGradient id="b" cx="0" cy="0" r="1" gradientTransform="translate(2778.4 2699.5) scale(2699.61)" gradientUnits="userSpaceOnUse">
      <stop stop-color="#fff" stop-opacity=".1"/>
      <stop offset="1" stop-color="#fff" stop-opacity="0"/>
    </radialGradient>
    <clipPath id="a">
      <path fill="#fff" d="M0 0h54v54H0z" transform="translate(79)"/>
    </clipPath>
  </defs>
</svg>
